M48
;GenerationSoftware,Autodesk,EAGLE,9.2.2*%
;CreationDate,2018-12-06T09:55:06Z*%
FMAT,2
ICI,OFF
METRIC,TZ,000.000
T4C0.305
T3C0.889
T2C0.900
T1C3.000
%
G90
M71
T1
X23090Y2770
X2770Y2770
T2
X5928Y39000
T3
X24360Y24257
X1500Y23647
X1500Y21107
X1500Y18567
X1500Y16027
X1500Y13487
X1500Y10947
X24360Y11557
X24360Y14097
X24360Y16637
X24360Y19177
X24360Y21717
T4
X15443Y13589
X18491Y14351
X19253Y16891
X18999Y19177
X5537Y16129
X15951Y15621
X15189Y15113
X17780Y22835
X18313Y22327
X18796Y20828
X21158Y23266
X12065Y19863
X24384Y27432
X24384Y28702
X24384Y29972
X24384Y31242
X1270Y35814
X1270Y34798
X1270Y33782
X1270Y32766
X7874Y1651
X9144Y1651
X10414Y1651
X15240Y1651
X16510Y1651
X17780Y1651
X12192Y6477
X13462Y6477
X13056Y5461
X11938Y5461
X14884Y17069
X14097Y16358
X10160Y14402
X11176Y14402
X13157Y11049
X23470Y38964
X24359Y38938
X8738Y4013
X14490Y7454
X2311Y33172
X16612Y22860
X17386Y10351
X15850Y16916
X16612Y19050
X20091Y23038
X19787Y18364
X19863Y15951
X19787Y20879
X16027Y14402
X5893Y32995
X16002Y11989
X5944Y28981
X14351Y12802
X3861Y27000
X1016Y9271
X11252Y4343
X17932Y4064
X4242Y9144
X914Y12217
X4978Y8357
X7214Y15189
X991Y8230
X1016Y6706
X10930Y19863
X7468Y12802
X5639Y11100
X9373Y9703
X3759Y30988
X10947Y10871
X914Y14732
X22555Y38989
X889Y17297
X864Y22276
X24968Y23012
X24968Y20396
X25019Y17882
X25019Y15367
X24384Y26162
X889Y19837
X12141Y11049
X14173Y11049
X15189Y11049
X6553Y14402
M30